<svg width="143" height="47" viewBox="0 0 143 47" fill="none" xmlns="http://www.w3.org/2000/svg">
<path d="M43.3807 1.26576L-0.000183105 0L2.18612 4.60275L18.756 5.06303L2.18612 18.1809L18.756 34.7508H25.8903L9.32039 18.1809L25.8903 5.06303L46.0273 5.86851L43.3807 1.26576Z" fill="url(#paint0_linear_543_390)"/>
<path d="M20.1369 18.1809H13.2327L29.1122 34.4056L13.2327 45.6823L20.1369 46.0275L36.4766 34.4056L20.1369 18.1809Z" fill="url(#paint1_linear_543_390)"/>
<path d="M28.652 14.0384H21.4027L35.5561 27.5014H43.0356L28.652 14.0384Z" fill="#5B86E5"/>
<path d="M72.3398 6.96V9.7H68.6198V21H65.1998V9.7H61.4798V6.96H72.3398ZM85.5762 15.24C85.5762 15.56 85.5562 15.8933 85.5162 16.24H77.7762C77.8296 16.9333 78.0496 17.4667 78.4362 17.84C78.8362 18.2 79.3229 18.38 79.8962 18.38C80.7496 18.38 81.3429 18.02 81.6762 17.3H85.3162C85.1296 18.0333 84.7896 18.6933 84.2962 19.28C83.8162 19.8667 83.2096 20.3267 82.4762 20.66C81.7429 20.9933 80.9229 21.16 80.0162 21.16C78.9229 21.16 77.9496 20.9267 77.0962 20.46C76.2429 19.9933 75.5762 19.3267 75.0962 18.46C74.6162 17.5933 74.3762 16.58 74.3762 15.42C74.3762 14.26 74.6096 13.2467 75.0762 12.38C75.5562 11.5133 76.2229 10.8467 77.0762 10.38C77.9296 9.91333 78.9096 9.68 80.0162 9.68C81.0962 9.68 82.0562 9.90667 82.8962 10.36C83.7362 10.8133 84.3896 11.46 84.8562 12.3C85.3362 13.14 85.5762 14.12 85.5762 15.24ZM82.0762 14.34C82.0762 13.7533 81.8762 13.2867 81.4762 12.94C81.0762 12.5933 80.5762 12.42 79.9762 12.42C79.4029 12.42 78.9162 12.5867 78.5162 12.92C78.1296 13.2533 77.8896 13.7267 77.7962 14.34H82.0762ZM102.62 9.72C104.007 9.72 105.107 10.14 105.92 10.98C106.747 11.82 107.16 12.9867 107.16 14.48V21H103.76V14.94C103.76 14.22 103.567 13.6667 103.18 13.28C102.807 12.88 102.287 12.68 101.62 12.68C100.954 12.68 100.427 12.88 100.04 13.28C99.6671 13.6667 99.4804 14.22 99.4804 14.94V21H96.0804V14.94C96.0804 14.22 95.8871 13.6667 95.5004 13.28C95.1271 12.88 94.6071 12.68 93.9404 12.68C93.2738 12.68 92.7471 12.88 92.3604 13.28C91.9871 13.6667 91.8004 14.22 91.8004 14.94V21H88.3804V9.84H91.8004V11.24C92.1471 10.7733 92.6004 10.4067 93.1604 10.14C93.7204 9.86 94.3538 9.72 95.0604 9.72C95.9004 9.72 96.6471 9.9 97.3004 10.26C97.9671 10.62 98.4871 11.1333 98.8604 11.8C99.2471 11.1867 99.7738 10.6867 100.44 10.3C101.107 9.91333 101.834 9.72 102.62 9.72ZM109.872 15.4C109.872 14.2533 110.086 13.2467 110.512 12.38C110.952 11.5133 111.546 10.8467 112.292 10.38C113.039 9.91333 113.872 9.68 114.792 9.68C115.579 9.68 116.266 9.84 116.852 10.16C117.452 10.48 117.912 10.9 118.232 11.42V9.84H121.652V21H118.232V19.42C117.899 19.94 117.432 20.36 116.832 20.68C116.246 21 115.559 21.16 114.772 21.16C113.866 21.16 113.039 20.9267 112.292 20.46C111.546 19.98 110.952 19.3067 110.512 18.44C110.086 17.56 109.872 16.5467 109.872 15.4ZM118.232 15.42C118.232 14.5667 117.992 13.8933 117.512 13.4C117.046 12.9067 116.472 12.66 115.792 12.66C115.112 12.66 114.532 12.9067 114.052 13.4C113.586 13.88 113.352 14.5467 113.352 15.4C113.352 16.2533 113.586 16.9333 114.052 17.44C114.532 17.9333 115.112 18.18 115.792 18.18C116.472 18.18 117.046 17.9333 117.512 17.44C117.992 16.9467 118.232 16.2733 118.232 15.42ZM131.927 9.72C133.233 9.72 134.273 10.1467 135.047 11C135.833 11.84 136.227 13 136.227 14.48V21H132.827V14.94C132.827 14.1933 132.633 13.6133 132.247 13.2C131.86 12.7867 131.34 12.58 130.687 12.58C130.033 12.58 129.513 12.7867 129.127 13.2C128.74 13.6133 128.547 14.1933 128.547 14.94V21H125.127V9.84H128.547V11.32C128.893 10.8267 129.36 10.44 129.947 10.16C130.533 9.86667 131.193 9.72 131.927 9.72ZM61.6598 33.96C61.6598 32.5733 61.9598 31.34 62.5598 30.26C63.1598 29.1667 63.9932 28.32 65.0598 27.72C66.1398 27.1067 67.3598 26.8 68.7198 26.8C70.3865 26.8 71.8132 27.24 72.9998 28.12C74.1865 29 74.9798 30.2 75.3798 31.72H71.6198C71.3398 31.1333 70.9398 30.6867 70.4198 30.38C69.9132 30.0733 69.3332 29.92 68.6798 29.92C67.6265 29.92 66.7732 30.2867 66.1198 31.02C65.4665 31.7533 65.1398 32.7333 65.1398 33.96C65.1398 35.1867 65.4665 36.1667 66.1198 36.9C66.7732 37.6333 67.6265 38 68.6798 38C69.3332 38 69.9132 37.8467 70.4198 37.54C70.9398 37.2333 71.3398 36.7867 71.6198 36.2H75.3798C74.9798 37.72 74.1865 38.92 72.9998 39.8C71.8132 40.6667 70.3865 41.1 68.7198 41.1C67.3598 41.1 66.1398 40.8 65.0598 40.2C63.9932 39.5867 63.1598 38.74 62.5598 37.66C61.9598 36.58 61.6598 35.3467 61.6598 33.96ZM83.5542 41.16C82.4609 41.16 81.4742 40.9267 80.5942 40.46C79.7275 39.9933 79.0409 39.3267 78.5342 38.46C78.0409 37.5933 77.7942 36.58 77.7942 35.42C77.7942 34.2733 78.0475 33.2667 78.5542 32.4C79.0609 31.52 79.7542 30.8467 80.6342 30.38C81.5142 29.9133 82.5009 29.68 83.5942 29.68C84.6875 29.68 85.6742 29.9133 86.5542 30.38C87.4342 30.8467 88.1275 31.52 88.6342 32.4C89.1409 33.2667 89.3942 34.2733 89.3942 35.42C89.3942 36.5667 89.1342 37.58 88.6142 38.46C88.1075 39.3267 87.4075 39.9933 86.5142 40.46C85.6342 40.9267 84.6475 41.16 83.5542 41.16ZM83.5542 38.2C84.2075 38.2 84.7609 37.96 85.2142 37.48C85.6809 37 85.9142 36.3133 85.9142 35.42C85.9142 34.5267 85.6875 33.84 85.2342 33.36C84.7942 32.88 84.2475 32.64 83.5942 32.64C82.9275 32.64 82.3742 32.88 81.9342 33.36C81.4942 33.8267 81.2742 34.5133 81.2742 35.42C81.2742 36.3133 81.4875 37 81.9142 37.48C82.3542 37.96 82.9009 38.2 83.5542 38.2ZM91.5286 35.4C91.5286 34.2533 91.7419 33.2467 92.1686 32.38C92.6086 31.5133 93.2019 30.8467 93.9486 30.38C94.6952 29.9133 95.5286 29.68 96.4486 29.68C97.1819 29.68 97.8486 29.8333 98.4486 30.14C99.0619 30.4467 99.5419 30.86 99.8886 31.38V26.2H103.309V41H99.8886V39.4C99.5686 39.9333 99.1086 40.36 98.5086 40.68C97.9219 41 97.2352 41.16 96.4486 41.16C95.5286 41.16 94.6952 40.9267 93.9486 40.46C93.2019 39.98 92.6086 39.3067 92.1686 38.44C91.7419 37.56 91.5286 36.5467 91.5286 35.4ZM99.8886 35.42C99.8886 34.5667 99.6486 33.8933 99.1686 33.4C98.7019 32.9067 98.1286 32.66 97.4486 32.66C96.7686 32.66 96.1886 32.9067 95.7086 33.4C95.2419 33.88 95.0086 34.5467 95.0086 35.4C95.0086 36.2533 95.2419 36.9333 95.7086 37.44C96.1886 37.9333 96.7686 38.18 97.4486 38.18C98.1286 38.18 98.7019 37.9333 99.1686 37.44C99.6486 36.9467 99.8886 36.2733 99.8886 35.42ZM108.503 28.68C107.903 28.68 107.409 28.5067 107.023 28.16C106.649 27.8 106.463 27.36 106.463 26.84C106.463 26.3067 106.649 25.8667 107.023 25.52C107.409 25.16 107.903 24.98 108.503 24.98C109.089 24.98 109.569 25.16 109.943 25.52C110.329 25.8667 110.523 26.3067 110.523 26.84C110.523 27.36 110.329 27.8 109.943 28.16C109.569 28.5067 109.089 28.68 108.503 28.68ZM110.203 29.84V41H106.783V29.84H110.203ZM120.481 29.72C121.788 29.72 122.828 30.1467 123.601 31C124.388 31.84 124.781 33 124.781 34.48V41H121.381V34.94C121.381 34.1933 121.188 33.6133 120.801 33.2C120.415 32.7867 119.895 32.58 119.241 32.58C118.588 32.58 118.068 32.7867 117.681 33.2C117.295 33.6133 117.101 34.1933 117.101 34.94V41H113.681V29.84H117.101V31.32C117.448 30.8267 117.915 30.44 118.501 30.16C119.088 29.8667 119.748 29.72 120.481 29.72ZM132.398 29.68C133.184 29.68 133.871 29.84 134.458 30.16C135.058 30.48 135.518 30.9 135.838 31.42V29.84H139.258V40.98C139.258 42.0067 139.051 42.9333 138.638 43.76C138.238 44.6 137.618 45.2667 136.778 45.76C135.951 46.2533 134.918 46.5 133.678 46.5C132.024 46.5 130.684 46.1067 129.658 45.32C128.631 44.5467 128.044 43.4933 127.898 42.16H131.278C131.384 42.5867 131.638 42.92 132.038 43.16C132.438 43.4133 132.931 43.54 133.518 43.54C134.224 43.54 134.784 43.3333 135.198 42.92C135.624 42.52 135.838 41.8733 135.838 40.98V39.4C135.504 39.92 135.044 40.3467 134.458 40.68C133.871 41 133.184 41.16 132.398 41.16C131.478 41.16 130.644 40.9267 129.898 40.46C129.151 39.98 128.558 39.3067 128.118 38.44C127.691 37.56 127.478 36.5467 127.478 35.4C127.478 34.2533 127.691 33.2467 128.118 32.38C128.558 31.5133 129.151 30.8467 129.898 30.38C130.644 29.9133 131.478 29.68 132.398 29.68ZM135.838 35.42C135.838 34.5667 135.598 33.8933 135.118 33.4C134.651 32.9067 134.078 32.66 133.398 32.66C132.718 32.66 132.138 32.9067 131.658 33.4C131.191 33.88 130.958 34.5467 130.958 35.4C130.958 36.2533 131.191 36.9333 131.658 37.44C132.138 37.9333 132.718 38.18 133.398 38.18C134.078 38.18 134.651 37.9333 135.118 37.44C135.598 36.9467 135.838 36.2733 135.838 35.42Z" fill="url(#paint2_linear_543_390)"/>
<defs>
<linearGradient id="paint0_linear_543_390" x1="1.49571" y1="1.15069" x2="35.7862" y2="34.6357" gradientUnits="userSpaceOnUse">
<stop offset="0.469398" stop-color="#36D1DC"/>
<stop offset="1" stop-color="#5B86E5"/>
</linearGradient>
<linearGradient id="paint1_linear_543_390" x1="1.49571" y1="1.15069" x2="35.7862" y2="34.6357" gradientUnits="userSpaceOnUse">
<stop offset="0.469398" stop-color="#36D1DC"/>
<stop offset="1" stop-color="#5B86E5"/>
</linearGradient>
<linearGradient id="paint2_linear_543_390" x1="65.1782" y1="4" x2="142.454" y2="9.46548" gradientUnits="userSpaceOnUse">
<stop stop-color="#36D1DC"/>
<stop offset="1" stop-color="#5B86E5"/>
</linearGradient>
</defs>
</svg>
