<svg width="66" height="66" viewBox="0 0 66 66" fill="none" xmlns="http://www.w3.org/2000/svg">
<g clip-path="url(#clip0_543_572)">
<rect x="0.499756" y="0.5" width="65" height="65" rx="32.5" fill="black" stroke="white"/>
<path d="M45.4194 31.5002H16.8692C16.4618 31.5002 16.0711 31.6582 15.783 31.9395C15.495 32.2207 15.3331 32.6022 15.3331 33C15.3331 33.3978 15.495 33.7793 15.783 34.0605C16.0711 34.3418 16.4618 34.4998 16.8692 34.4998H45.4194L34.215 45.4364C33.9266 45.7181 33.7645 46.1 33.7645 46.4983C33.7645 46.8966 33.9266 47.2785 34.215 47.5602C34.5035 47.8418 34.8947 48 35.3026 48C35.7105 48 36.1017 47.8418 36.3902 47.5602L50.2152 34.0619C50.3582 33.9225 50.4717 33.757 50.5492 33.5748C50.6266 33.3926 50.6665 33.1973 50.6665 33C50.6665 32.8027 50.6266 32.6074 50.5492 32.4252C50.4717 32.243 50.3582 32.0775 50.2152 31.9381L36.3902 18.4398C36.1017 18.1582 35.7105 18 35.3026 18C34.8947 18 34.5035 18.1582 34.215 18.4398C33.9266 18.7215 33.7645 19.1034 33.7645 19.5017C33.7645 19.9 33.9266 20.2819 34.215 20.5636L45.4194 31.5002Z" fill="white"/>
</g>
<defs>
<clipPath id="clip0_543_572">
<rect width="66" height="66" fill="white" transform="translate(-0.000244141)"/>
</clipPath>
</defs>
</svg>
