<svg width="31" height="31" viewBox="0 0 31 31" fill="none" xmlns="http://www.w3.org/2000/svg">
<path d="M8.17219 24.5417C7.98964 24.5417 7.83636 24.4797 7.71236 24.3557C7.58836 24.2317 7.52636 24.078 7.52636 23.8945C7.52636 23.7111 7.58836 23.5578 7.71236 23.4347C7.83636 23.3116 7.98964 23.25 8.17219 23.25H22.8274C23.0109 23.25 23.1641 23.312 23.2873 23.436C23.4104 23.56 23.4724 23.7137 23.4733 23.8971C23.4741 24.0805 23.4121 24.2338 23.2873 24.357C23.1624 24.4801 23.0091 24.5417 22.8274 24.5417H8.17219ZM9.17582 20.8165C8.66776 20.8165 8.22515 20.6572 7.84798 20.3386C7.47082 20.02 7.22884 19.6152 7.12207 19.1244L5.57982 10.9469C5.53676 10.9641 5.48854 10.9736 5.43515 10.9753C5.3809 10.9779 5.33225 10.9792 5.28919 10.9792C4.88361 10.9792 4.54648 10.8414 4.27782 10.5658C4.00915 10.2903 3.87482 9.95617 3.87482 9.5635C3.87482 9.15619 4.00958 8.81003 4.27911 8.525C4.54778 8.24083 4.88533 8.09875 5.29178 8.09875C5.69822 8.09875 6.04396 8.24083 6.32898 8.525C6.61315 8.81003 6.75523 9.15619 6.75523 9.5635C6.75523 9.65306 6.75179 9.73615 6.7449 9.81279C6.73801 9.88943 6.71261 9.96521 6.66869 10.0401L10.2337 11.4752C10.399 11.5415 10.5648 11.5501 10.731 11.501C10.8963 11.4511 11.0367 11.3516 11.1521 11.2026L14.6422 6.47512C14.4553 6.35285 14.3072 6.19096 14.1978 5.98946C14.0885 5.78882 14.0338 5.57225 14.0338 5.33975C14.0338 4.93331 14.1763 4.58757 14.4613 4.30254C14.7455 4.01751 15.0912 3.875 15.4985 3.875C15.905 3.875 16.2511 4.01708 16.537 4.30125C16.8229 4.58542 16.9659 4.92986 16.9659 5.33458C16.9659 5.57914 16.9112 5.79958 16.8018 5.99592C16.6925 6.19397 16.5443 6.35371 16.3575 6.47512L19.8476 11.2026C19.963 11.3516 20.1033 11.4506 20.2687 11.4997C20.4348 11.5505 20.6006 11.5428 20.7659 11.4765L24.3309 10.0401C24.3077 9.97124 24.2875 9.89589 24.2702 9.81408C24.253 9.73142 24.2444 9.64789 24.2444 9.5635C24.2444 9.15619 24.3787 8.81003 24.6474 8.525C24.9161 8.24083 25.2536 8.09875 25.6601 8.09875C26.0665 8.09875 26.4122 8.24083 26.6973 8.525C26.9823 8.81003 27.1248 9.15619 27.1248 9.5635C27.1248 9.95444 26.9819 10.2881 26.696 10.5645C26.4101 10.841 26.0631 10.9792 25.6549 10.9792C25.6222 10.9792 25.5851 10.974 25.5438 10.9637C25.5025 10.9533 25.4568 10.9477 25.4069 10.9469L23.8776 19.1231C23.7699 19.6157 23.528 20.0208 23.1516 20.3386C22.7753 20.6563 22.3327 20.8156 21.8238 20.8165H9.17582ZM9.20036 19.5248H21.7993C21.9818 19.5248 22.1476 19.4667 22.2966 19.3505C22.4455 19.2342 22.5364 19.0852 22.5691 18.9035L24.0287 11.5979L21.2516 12.6906C20.809 12.8775 20.3599 12.9098 19.9044 12.7875C19.4489 12.6652 19.0777 12.4026 18.791 11.9996L15.4998 7.49683L12.2086 11.9996C11.9219 12.4026 11.5508 12.6652 11.0952 12.7875C10.6397 12.9098 10.1902 12.8775 9.74673 12.6906L6.96965 11.5979L8.43052 18.9035C8.46325 19.0852 8.55409 19.2342 8.70307 19.3505C8.85204 19.4667 9.0178 19.5248 9.20036 19.5248Z" fill="white"/>
</svg>
